<svg width="20" height="20" viewBox="0 0 20 20" fill="none" xmlns="http://www.w3.org/2000/svg">
<g clip-path="url(#clip0_0_104)">
<path d="M0.833326 3.95861H3.11333C3.29219 4.61672 3.68264 5.19769 4.22443 5.61189C4.76623 6.02608 5.42926 6.25049 6.11124 6.25049C6.79322 6.25049 7.45626 6.02608 7.99805 5.61189C8.53985 5.19769 8.93029 4.61672 9.10916 3.95861H19.1667C19.3877 3.95861 19.5996 3.87081 19.7559 3.71453C19.9122 3.55825 20 3.34629 20 3.12528C20 2.90426 19.9122 2.6923 19.7559 2.53602C19.5996 2.37974 19.3877 2.29194 19.1667 2.29194H9.10916C8.93029 1.63383 8.53985 1.05286 7.99805 0.638668C7.45626 0.22447 6.79322 6.10352e-05 6.11124 6.10352e-05C5.42926 6.10352e-05 4.76623 0.22447 4.22443 0.638668C3.68264 1.05286 3.29219 1.63383 3.11333 2.29194H0.833326C0.612312 2.29194 0.40035 2.37974 0.24407 2.53602C0.0877898 2.6923 -7.62939e-06 2.90426 -7.62939e-06 3.12528C-7.62939e-06 3.34629 0.0877898 3.55825 0.24407 3.71453C0.40035 3.87081 0.612312 3.95861 0.833326 3.95861ZM6.11083 1.66694C6.39926 1.66694 6.68121 1.75247 6.92103 1.91272C7.16085 2.07296 7.34777 2.30072 7.45815 2.5672C7.56853 2.83367 7.59741 3.12689 7.54114 3.40978C7.48487 3.69267 7.34597 3.95252 7.14202 4.15647C6.93807 4.36043 6.67822 4.49932 6.39533 4.55559C6.11244 4.61186 5.81922 4.58298 5.55275 4.4726C5.28627 4.36222 5.05851 4.1753 4.89827 3.93548C4.73802 3.69566 4.65249 3.41371 4.65249 3.12528C4.65293 2.73864 4.80672 2.36796 5.08012 2.09457C5.35351 1.82117 5.72419 1.66738 6.11083 1.66694Z" fill="#BBBBBB"/>
<path d="M19.1667 9.16592H16.8867C16.7081 8.50766 16.3178 7.92648 15.7761 7.51211C15.2343 7.09775 14.5712 6.87323 13.8892 6.87323C13.2071 6.87323 12.544 7.09775 12.0023 7.51211C11.4605 7.92648 11.0702 8.50766 10.8917 9.16592H0.833326C0.612312 9.16592 0.40035 9.25372 0.24407 9.41C0.0877898 9.56628 -7.62939e-06 9.77824 -7.62939e-06 9.99925C-7.62939e-06 10.2203 0.0877898 10.4322 0.24407 10.5885C0.40035 10.7448 0.612312 10.8326 0.833326 10.8326H10.8917C11.0702 11.4908 11.4605 12.072 12.0023 12.4864C12.544 12.9008 13.2071 13.1253 13.8892 13.1253C14.5712 13.1253 15.2343 12.9008 15.7761 12.4864C16.3178 12.072 16.7081 11.4908 16.8867 10.8326H19.1667C19.3877 10.8326 19.5996 10.7448 19.7559 10.5885C19.9122 10.4322 20 10.2203 20 9.99925C20 9.77824 19.9122 9.56628 19.7559 9.41C19.5996 9.25372 19.3877 9.16592 19.1667 9.16592ZM13.8892 11.4576C13.6007 11.4576 13.3188 11.3721 13.079 11.2118C12.8391 11.0516 12.6522 10.8238 12.5418 10.5573C12.4315 10.2909 12.4026 9.99763 12.4588 9.71475C12.5151 9.43186 12.654 9.17201 12.858 8.96806C13.0619 8.76411 13.3218 8.62521 13.6047 8.56894C13.8875 8.51267 14.1808 8.54155 14.4472 8.65193C14.7137 8.76231 14.9415 8.94923 15.1017 9.18905C15.262 9.42887 15.3475 9.71082 15.3475 9.99925C15.3471 10.3859 15.1933 10.7566 14.9199 11.03C14.6465 11.3034 14.2758 11.4571 13.8892 11.4576Z" fill="#BBBBBB"/>
<path d="M19.1667 16.0419H9.10916C8.93029 15.3838 8.53985 14.8029 7.99805 14.3887C7.45626 13.9745 6.79322 13.7501 6.11124 13.7501C5.42926 13.7501 4.76623 13.9745 4.22443 14.3887C3.68264 14.8029 3.29219 15.3838 3.11333 16.0419H0.833326C0.612312 16.0419 0.40035 16.1297 0.24407 16.286C0.0877898 16.4423 -7.62939e-06 16.6543 -7.62939e-06 16.8753C-7.62939e-06 17.0963 0.0877898 17.3082 0.24407 17.4645C0.40035 17.6208 0.612312 17.7086 0.833326 17.7086H3.11333C3.29219 18.3667 3.68264 18.9477 4.22443 19.3619C4.76623 19.7761 5.42926 20.0005 6.11124 20.0005C6.79322 20.0005 7.45626 19.7761 7.99805 19.3619C8.53985 18.9477 8.93029 18.3667 9.10916 17.7086H19.1667C19.3877 17.7086 19.5996 17.6208 19.7559 17.4645C19.9122 17.3082 20 17.0963 20 16.8753C20 16.6543 19.9122 16.4423 19.7559 16.286C19.5996 16.1297 19.3877 16.0419 19.1667 16.0419ZM6.11083 18.3336C5.82239 18.3336 5.54044 18.2481 5.30062 18.0878C5.0608 17.9276 4.87388 17.6998 4.7635 17.4333C4.65312 17.1669 4.62424 16.8736 4.68051 16.5908C4.73678 16.3079 4.87568 16.048 5.07963 15.8441C5.28358 15.6401 5.54343 15.5012 5.82632 15.445C6.10921 15.3887 6.40243 15.4176 6.66891 15.5279C6.93538 15.6383 7.16314 15.8252 7.32339 16.0651C7.48363 16.3049 7.56916 16.5868 7.56916 16.8753C7.5685 17.2618 7.41464 17.6324 7.14129 17.9057C6.86795 18.1791 6.4974 18.3329 6.11083 18.3336Z" fill="#BBBBBB"/>
</g>
<defs>
<clipPath id="clip0_0_104">
<rect width="20" height="20" fill="white"/>
</clipPath>
</defs>
</svg>
